<svg xmlns="http://www.w3.org/2000/svg" viewBox="0 0 1000 1000" style="enable-background:new 0 0 1000 1000" xml:space="preserve"><g transform="matrix(.20997 0 0 .20997 4.107 -104.913)"><linearGradient id="a" gradientUnits="userSpaceOnUse" x1="3075.015" y1="3641.872" x2="6249.853" y2="467.033" gradientTransform="matrix(.21 0 0 -.21 922.61 2852.154)"><stop offset="0" style="stop-color:#fd0"/><stop offset="1" style="stop-color:#ff8200"/></linearGradient><path d="M4743.1 4285.6c0 537.2-439.5 976.7-976.7 976.7H957.2c-537.2 0-976.7-439.5-976.7-976.7V1476.4c0-537.2 439.5-976.7 976.7-976.7h2809.2c537.2 0 976.7 439.5 976.7 976.7v2809.2z" style="fill-rule:evenodd;clip-rule:evenodd;fill:url(#a)"/><path d="M2149.6 2090.3c89.4 120.3 144.1 267.9 150.4 427.9v27.6c0 155.9-46.2 301.3-126.4 422.1l-638.9 974.8-17.2 26.3c-7 10.6-18.8 17-31.5 17H965.5c-25.1 0-40.1-27.8-26.4-48.8l423.8-646.6c-339.2-78.2-592.2-381.9-592.2-744.9l.7-27.6c5.6-159.6 60.1-306.8 149.1-427 139.3-188.2 362.8-310.2 614.9-310.2 251.6.2 474.8 121.8 614.2 309.4zM1759 2686.2l21.3-32.6c22.9-41.5 34.9-88.1 34.7-135.5-.3-154.3-125.4-279.2-279.7-279.2-154.3 0-279.4 125-279.7 279.7 0 154.5 125.2 279.8 279.7 279.8 91.6.1 172.6-44.1 223.7-112.2zm2040.6-595.9c89.4 120.3 144.1 267.9 150.5 427.9v27.6c0 155.9-46.2 301.3-126.4 422.1l-638.9 974.8-17.2 26.3c-7 10.6-18.8 17-31.5 17h-520.5c-25.1 0-40.1-27.8-26.4-48.8l423.8-646.6c-339.2-78.2-592.2-381.9-592.2-744.9l.7-27.6c5.7-159.6 60.1-306.8 149.1-427 139.3-188.2 362.8-310.2 614.9-310.2 251.6.2 474.8 121.8 614.1 309.4zM3409 2686.2l21.3-32.6c22.9-41.5 34.9-88.1 34.7-135.5-.3-154.3-125.4-279.2-279.7-279.2-154.3 0-279.5 125-279.8 279.7 0 154.5 125.3 279.8 279.8 279.8 91.7.1 172.7-44.1 223.7-112.2z"/></g></svg>